<?xml version="1.0" encoding="utf-8"?>
<!-- Generator: Adobe Illustrator 22.0.1, SVG Export Plug-In . SVG Version: 6.00 Build 0)  -->
<svg version="1.1" id="Capa_1" xmlns="http://www.w3.org/2000/svg" xmlns:xlink="http://www.w3.org/1999/xlink" x="0px" y="0px"
	 viewBox="0 0 51.5 51.5" style="enable-background:new 0 0 51.5 51.5;" xml:space="preserve">
<style type="text/css">
	.st0{fill:#ED8F20;}
	.st1{fill:#EF771D;}
	.st2{fill:#9B6026;}
	.st3{fill:#659C35;}
	.st4{fill:#88C057;}
</style>
<g>
	<g>
		<path class="st0" d="M36.5,12.9l-5.1-0.4l1.9-4.7C33.6,7,34,6.2,34.4,5.6c-3-1.3-6.2-2-9.7-2c-13.3,0-24,10.7-24,24s10.7,24,24,24
			s24-10.7,24-24c0-6.1-2.2-11.6-6-15.8C40.9,12.6,38.7,13.1,36.5,12.9z"/>
	</g>
	<g>
		<circle class="st1" cx="39.1" cy="19" r="2"/>
	</g>
	<g>
		<circle class="st1" cx="43.9" cy="29.7" r="2"/>
	</g>
	<g>
		<circle class="st1" cx="44.1" cy="24" r="2"/>
	</g>
	<g>
		<circle class="st1" cx="38" cy="28.1" r="2"/>
	</g>
	<g>
		<circle class="st1" cx="38.5" cy="34.5" r="2"/>
	</g>
	<g>
		<circle class="st1" cx="20.5" cy="10.5" r="2"/>
	</g>
	<g>
		<circle class="st1" cx="13.5" cy="13.5" r="2"/>
	</g>
	<g>
		<g>
			<path class="st0" d="M27.8,11.5c0,0,4.2,0.7,5.4,3.6"/>
		</g>
		<g>
			<path class="st2" d="M33.2,16.1c-0.4,0-0.8-0.2-0.9-0.6c-0.9-2.3-4.6-3-4.6-3c-0.5-0.1-0.9-0.6-0.8-1.2c0.1-0.5,0.6-0.9,1.1-0.8
				c0.2,0,4.8,0.8,6.2,4.2c0.2,0.5,0,1.1-0.6,1.3C33.4,16.1,33.3,16.1,33.2,16.1z"/>
		</g>
	</g>
	<g>
		<g>
			<path class="st0" d="M28.4,14.5c1-1.1,2.3-2,3.8-2.6"/>
		</g>
		<g>
			<path class="st2" d="M28.4,15.5c-0.2,0-0.5-0.1-0.7-0.3c-0.4-0.4-0.4-1-0.1-1.4c1.1-1.3,2.6-2.2,4.2-2.8c0.5-0.2,1.1,0.1,1.3,0.6
				c0.2,0.5-0.1,1.1-0.6,1.3c-1.3,0.5-2.5,1.3-3.4,2.3C28.9,15.4,28.6,15.5,28.4,15.5z"/>
		</g>
	</g>
	<g>
		<path class="st3" d="M50.8,0.5L45.7,0c-5.4-0.4-10.4,2.7-12.4,7.7l-1.9,4.7l5.1,0.4c5.4,0.4,10.4-2.7,12.4-7.7L50.8,0.5z"/>
	</g>
	<g>
		<path class="st4" d="M32,11.1l-0.6,1.4l0.7,0.1c6.3-6.1,13.1-8.1,13.8-8.2l0-0.6l0.4,0.4l0.2-0.6l-0.4-0.4
			C45.5,3.1,38.5,5,32,11.1z"/>
	</g>
</g>
</svg>
