<?xml version="1.0" encoding="utf-8"?>
<!-- Generator: Adobe Illustrator 22.0.1, SVG Export Plug-In . SVG Version: 6.00 Build 0)  -->
<svg version="1.1" id="Capa_1" xmlns="http://www.w3.org/2000/svg" xmlns:xlink="http://www.w3.org/1999/xlink" x="0px" y="0px"
	 viewBox="0 0 53.5 53.5" style="enable-background:new 0 0 53.5 53.5;" xml:space="preserve">
<style type="text/css">
	.st0{fill:#B3B3B3;}
</style>
<g>
	<path class="st0" d="M50.6,6.6l2.4-6L46.5,0c-4.7-0.4-9,1.7-11.7,5.3c-3-1.2-6.1-1.8-9.3-1.8c-13.8,0-25,11.2-25,25s11.2,25,25,25
		s25-11.2,25-25c0-5.6-1.9-11.1-5.4-15.5C47.5,11.6,49.5,9.4,50.6,6.6z M48.6,28.5c0,12.7-10.3,23-23,23s-23-10.3-23-23
		s10.3-23,23-23c2.8,0,5.6,0.5,8.2,1.5c0,0,0,0,0,0c-0.2,0.4-0.4,0.8-0.6,1.3l-1.6,4.1c-1.4-0.7-2.7-0.9-2.8-0.9
		c-0.5-0.1-1.1,0.3-1.1,0.8c-0.1,0.5,0.3,1.1,0.8,1.2c0,0,0.5,0.1,1.1,0.3c-0.4,0.3-0.8,0.7-1.1,1c-0.4,0.4-0.3,1,0.1,1.4
		c0.2,0.2,0.4,0.3,0.7,0.3c0.3,0,0.5-0.1,0.7-0.3c0.5-0.5,1.1-1,1.7-1.4c0.6,0.4,1.2,1,1.5,1.7c0.2,0.4,0.5,0.6,0.9,0.6
		c0.1,0,0.2,0,0.4-0.1c0.5-0.2,0.8-0.8,0.6-1.3c-0.2-0.4-0.4-0.8-0.6-1.1l2.9,0.2c0.4,0,0.7,0,1.1,0c0.1,0,0.2,0,0.3,0
		c0.1,0,0.1,0,0.2,0c1.6-0.1,3.1-0.4,4.5-1C46.7,18.1,48.6,23.2,48.6,28.5z M43.6,11.6l-0.5,0.2c-1.3,0.6-2.8,1-4.2,1.1
		c-0.1,0-0.1,0-0.2,0c-0.5,0-0.9,0-1.4,0l-2.5-0.2c4.7-4.3,9.6-6,10.6-6.2c0.3,0,0.6-0.1,0.8-0.3c0.3-0.3,0.4-0.6,0.3-1
		s-0.4-0.6-0.7-0.7c-0.7-0.2-6,1.4-11.3,5.8L35,9.1c0.3-0.7,0.6-1.3,1-2l0.3-0.5c2.3-3.1,6-4.9,10-4.6l3.7,0.3l-1.4,3.5
		C47.7,8.4,45.9,10.4,43.6,11.6z"/>
	<circle class="st0" cx="39.3" cy="19.5" r="2"/>
	<circle class="st0" cx="44.6" cy="30.7" r="2"/>
	<circle class="st0" cx="44.3" cy="24.5" r="2"/>
	<circle class="st0" cx="38.3" cy="28.5" r="2"/>
	<circle class="st0" cx="39.3" cy="35.5" r="2"/>
	<circle class="st0" cx="21.3" cy="11.5" r="2"/>
	<circle class="st0" cx="14.3" cy="14.5" r="2"/>
</g>
</svg>
